<svg width="180" height="240" viewBox="0 0 180 240" fill="none" xmlns="http://www.w3.org/2000/svg">
<path d="M30 0C22.0435 0 14.4129 3.16071 8.7868 8.7868C3.1607 14.4129 0 22.0435 0 30V210C0 217.956 3.1607 225.587 8.7868 231.213C14.4129 236.839 22.0435 240 30 240H150C157.956 240 165.587 236.839 171.213 231.213C176.839 225.587 180 217.956 180 210V30C180 22.0435 176.839 14.4129 171.213 8.7868C165.587 3.16071 157.956 0 150 0L30 0ZM45 30H135C138.978 30 142.794 31.5804 145.607 34.3934C148.42 37.2064 150 41.0218 150 45V82.5C150 86.4782 148.42 90.2936 145.607 93.1066C142.794 95.9196 138.978 97.5 135 97.5H45C41.0218 97.5 37.2064 95.9196 34.3934 93.1066C31.5804 90.2936 30 86.4782 30 82.5V45C30 41.0218 31.5804 37.2064 34.3934 34.3934C37.2064 31.5804 41.0218 30 45 30ZM90 210C84.0905 210 78.2389 208.836 72.7792 206.575C67.3196 204.313 62.3588 200.998 58.1802 196.82C54.0016 192.641 50.6869 187.68 48.4254 182.221C46.164 176.761 45 170.909 45 165C45 159.091 46.164 153.239 48.4254 147.779C50.6869 142.32 54.0016 137.359 58.1802 133.18C62.3588 129.002 67.3196 125.687 72.7792 123.425C78.2389 121.164 84.0905 120 90 120C101.935 120 113.381 124.741 121.82 133.18C130.259 141.619 135 153.065 135 165C135 176.935 130.259 188.381 121.82 196.82C113.381 205.259 101.935 210 90 210Z" fill="url(#paint0_linear_484_468)"/>
<defs>
<linearGradient id="paint0_linear_484_468" x1="90" y1="0" x2="90" y2="240" gradientUnits="userSpaceOnUse">
<stop stop-color="#FF9AC6"/>
<stop offset="1" stop-color="#6456B3"/>
</linearGradient>
</defs>
</svg>
